<svg width="22" height="20" viewBox="0 0 22 20" fill="none" xmlns="http://www.w3.org/2000/svg">
<path fill-rule="evenodd" clip-rule="evenodd" d="M14.7714 17.3238C14.7714 16.3977 15.5215 15.6476 16.4476 15.6476C17.3737 15.6476 18.1238 16.3977 18.1238 17.3238C18.1238 18.2499 17.3737 19 16.4476 19C15.5215 19 14.7714 18.2499 14.7714 17.3238Z" stroke="black" stroke-linecap="round" stroke-linejoin="round"/>
<path fill-rule="evenodd" clip-rule="evenodd" d="M6.39038 17.3238C6.39038 16.3977 7.14048 15.6476 8.06658 15.6476C8.99268 15.6476 9.74278 16.3977 9.74278 17.3238C9.74278 18.2499 8.99268 19 8.06658 19C7.14048 19 6.39038 18.2499 6.39038 17.3238Z" stroke="black" stroke-linecap="round" stroke-linejoin="round"/>
<path d="M1.36182 1.3999H3.87612L5.98645 11.9499C6.22112 13.1258 7.25282 13.9714 8.4513 13.9714H18.9619" stroke="black" stroke-linecap="round" stroke-linejoin="round"/>
<path d="M20.6381 3.91418L19.8905 9.14477C19.8368 9.52023 19.5385 9.81273 19.1622 9.85799L5.97131 11.4571" stroke="black" stroke-linecap="round" stroke-linejoin="round"/>
</svg>
