<svg width="18" height="18" viewBox="0 0 18 18" fill="none" xmlns="http://www.w3.org/2000/svg">
<path d="M1.55401 12.132C1.25732 11.9225 1.27582 11.4766 1.58884 11.2925L8.74649 7.08212C8.90296 6.99008 9.09704 6.99008 9.25351 7.08212L16.4112 11.2925C16.7242 11.4766 16.7427 11.9225 16.446 12.132L9.28834 17.1844C9.11548 17.3064 8.88452 17.3064 8.71166 17.1844L1.55401 12.132Z" fill="white" stroke="black"/>
<path d="M1.55401 8.95556C1.25732 8.74613 1.27582 8.30024 1.58884 8.11611L8.74649 3.90573C8.90296 3.81368 9.09704 3.81368 9.25351 3.90573L16.4112 8.11611C16.7242 8.30024 16.7427 8.74613 16.446 8.95556L9.28834 14.008C9.11548 14.13 8.88452 14.13 8.71166 14.008L1.55401 8.95556Z" fill="white" stroke="black"/>
<path d="M1.55401 5.77905C1.25732 5.56962 1.27582 5.12373 1.58884 4.9396L8.74649 0.729214C8.90296 0.63717 9.09704 0.63717 9.25351 0.729214L16.4112 4.93959C16.7242 5.12373 16.7427 5.56962 16.446 5.77905L9.28834 10.8315C9.11548 10.9535 8.88452 10.9535 8.71166 10.8315L1.55401 5.77905Z" fill="white" stroke="black"/>
</svg>
