<svg width="120" height="138" viewBox="0 0 120 138" fill="none" xmlns="http://www.w3.org/2000/svg">
<g filter="url(#filter0_f)">
<path fill-rule="evenodd" clip-rule="evenodd" d="M16.1599 114.64H95.5199V122.32H16.1599V114.64Z" fill="#1B3554"/>
</g>
<path fill-rule="evenodd" clip-rule="evenodd" d="M16.8 9.67993H96.16V60.2399H16.8V9.67993Z" fill="#E0E5EC"/>
<path fill-rule="evenodd" clip-rule="evenodd" d="M16.8 9.67993V86.4799H4V40.0393L10.401 30.2152L16.8 9.67993Z" fill="#CFD4DC"/>
<path fill-rule="evenodd" clip-rule="evenodd" d="M95.5201 9.67993V86.4799H108.32V40.0393L101.919 30.2152L95.5201 9.67993Z" fill="#CFD4DC"/>
<path d="M4 39.76H108.32V126.8C108.32 128.567 106.887 130 105.12 130H7.2C5.43269 130 4 128.567 4 126.8V39.76Z" fill="white"/>
<path opacity="0.5" fill-rule="evenodd" clip-rule="evenodd" d="M35.3601 75.3106C35.3601 74.8628 35.5901 74.4462 35.988 74.2407C36.8736 73.7833 38.5656 73.04 40.2099 73.04C41.8536 73.04 43.4972 73.7827 44.3537 74.2402C44.7396 74.4463 44.9601 74.8546 44.9601 75.2921C44.9601 76.3226 43.7733 76.9982 42.8037 76.6491C42.0249 76.3687 41.109 76.1416 40.1857 76.1416C39.2441 76.1416 38.3025 76.3778 37.5043 76.6658C36.5365 77.015 35.3601 76.3394 35.3601 75.3106Z" fill="#1B3554"/>
<path opacity="0.5" fill-rule="evenodd" clip-rule="evenodd" d="M68 75.3106C68 74.8628 68.23 74.4462 68.6279 74.2407C69.5135 73.7833 71.2055 73.04 72.8498 73.04C74.4935 73.04 76.1371 73.7827 76.9936 74.2402C77.3795 74.4463 77.6 74.8546 77.6 75.2921C77.6 76.3226 76.4132 76.9982 75.4436 76.6491C74.6648 76.3687 73.7489 76.1416 72.8256 76.1416C71.884 76.1416 70.9424 76.3778 70.1442 76.6658C69.1764 77.015 68 76.3394 68 75.3106Z" fill="#1B3554"/>
<ellipse opacity="0.5" cx="56.48" cy="88.4019" rx="10.24" ry="4.48194" fill="#1B3554"/>
<circle opacity="0.149343" cx="32.8" cy="49.36" r="3.84" fill="#1B3554"/>
<circle opacity="0.149343" cx="79.5199" cy="49.36" r="3.84" fill="#1B3554"/>
<path d="M32.8 49.1633V25.36C32.8 12.4586 43.2587 2 56.16 2C69.0614 2 79.52 12.4586 79.52 25.36V49.1633" stroke="#5E7085" stroke-width="3.2" stroke-linecap="round" stroke-linejoin="round"/>
<g clip-path="url(#clip0)">
<g filter="url(#filter1_d)">
<circle cx="108.064" cy="112.464" r="11.264" fill="#C30045"/>
</g>
<path d="M107.962 116.351C108.6 116.351 109.174 116.205 109.685 115.912C110.203 115.612 110.643 115.225 111.003 114.752C111.363 114.279 111.641 113.745 111.837 113.152C112.032 112.559 112.129 111.966 112.129 111.373C112.129 110.899 112.058 110.468 111.915 110.077C111.78 109.687 111.585 109.353 111.33 109.075C111.082 108.797 110.774 108.583 110.406 108.433C110.046 108.275 109.64 108.196 109.189 108.196C108.544 108.196 107.962 108.346 107.444 108.647C106.933 108.94 106.497 109.322 106.137 109.796C105.776 110.269 105.499 110.802 105.303 111.395C105.108 111.988 105.011 112.582 105.011 113.175C105.011 113.648 105.078 114.08 105.213 114.47C105.356 114.861 105.555 115.195 105.81 115.473C106.066 115.75 106.373 115.968 106.734 116.126C107.102 116.276 107.511 116.351 107.962 116.351ZM108.063 115.101C107.545 115.101 107.143 114.928 106.858 114.583C106.58 114.237 106.441 113.768 106.441 113.175C106.441 112.747 106.505 112.311 106.633 111.868C106.768 111.425 106.952 111.027 107.184 110.674C107.417 110.314 107.695 110.021 108.018 109.796C108.341 109.563 108.694 109.446 109.077 109.446C109.595 109.446 109.993 109.619 110.271 109.965C110.556 110.31 110.699 110.779 110.699 111.373C110.699 111.801 110.631 112.236 110.496 112.679C110.368 113.122 110.188 113.524 109.955 113.884C109.723 114.237 109.445 114.53 109.122 114.763C108.799 114.988 108.446 115.101 108.063 115.101Z" fill="white"/>
</g>
<defs>
<filter id="filter0_f" x="0.680268" y="99.1602" width="110.319" height="38.6393" filterUnits="userSpaceOnUse" color-interpolation-filters="sRGB">
<feFlood flood-opacity="0" result="BackgroundImageFix"/>
<feBlend mode="normal" in="SourceGraphic" in2="BackgroundImageFix" result="shape"/>
<feGaussianBlur stdDeviation="7.73982" result="effect1_foregroundBlur"/>
</filter>
<filter id="filter1_d" x="91.8" y="98.2" width="32.528" height="32.528" filterUnits="userSpaceOnUse" color-interpolation-filters="sRGB">
<feFlood flood-opacity="0" result="BackgroundImageFix"/>
<feColorMatrix in="SourceAlpha" type="matrix" values="0 0 0 0 0 0 0 0 0 0 0 0 0 0 0 0 0 0 127 0"/>
<feOffset dy="2"/>
<feGaussianBlur stdDeviation="2.5"/>
<feColorMatrix type="matrix" values="0 0 0 0 0.764706 0 0 0 0 0 0 0 0 0 0.270588 0 0 0 0.41 0"/>
<feBlend mode="normal" in2="BackgroundImageFix" result="effect1_dropShadow"/>
<feBlend mode="normal" in="SourceGraphic" in2="effect1_dropShadow" result="shape"/>
</filter>
<clipPath id="clip0">
<rect width="23" height="23" fill="white" transform="translate(96.8 101.2)"/>
</clipPath>
</defs>
</svg>
