<svg width="15" height="17" viewBox="0 0 15 17" fill="none" xmlns="http://www.w3.org/2000/svg">
<g clip-path="url(#clip0)">
<path fill-rule="evenodd" clip-rule="evenodd" d="M14 8.5H1V15.8333C1 16.2013 1.2912 16.5 1.65 16.5H13.35C13.7088 16.5 14 16.2013 14 15.8333V8.5Z" stroke="#555555" stroke-width="1.4" stroke-linecap="round" stroke-linejoin="round"/>
<path fill-rule="evenodd" clip-rule="evenodd" d="M14.5 8.5H0.5V6.1C0.5 5.7688 0.785091 5.5 1.13636 5.5H13.8636C14.2149 5.5 14.5 5.7688 14.5 6.1V8.5Z" stroke="#555555" stroke-width="1.4" stroke-linecap="round" stroke-linejoin="round"/>
<path fill-rule="evenodd" clip-rule="evenodd" d="M7.04096 4.80786C5.85257 4.53216 3.90348 3.94608 3.2421 2.9622C3.09114 2.75455 3 2.48881 3 2.19903C3 1.53334 3.47066 0.887679 4.27528 1.01654C5.65172 1.23639 6.83708 2.3471 7.5 3.60506C8.16292 2.3471 9.34828 1.23639 10.7247 1.01654C11.5293 0.887679 12 1.53334 12 2.19903C12 2.48881 11.9089 2.75455 11.7579 2.9622V2.95953C11.0965 3.94523 9.14741 4.53189 7.95902 4.80777C7.97428 4.8721 7.98795 4.93621 8 5C8 5 7.80824 4.97031 7.49992 4.90771C7.1917 4.97032 7 5 7 5C7.01204 4.93623 7.02571 4.87215 7.04096 4.80786Z" stroke="#555555" stroke-width="1.4" stroke-linecap="round" stroke-linejoin="round"/>
</g>
<defs>
<clipPath id="clip0">
<rect width="15" height="17" fill="white"/>
</clipPath>
</defs>
</svg>
