<svg width="19" height="18" viewBox="0 0 19 18" fill="none" xmlns="http://www.w3.org/2000/svg">
<path fill-rule="evenodd" clip-rule="evenodd" d="M10.4898 0.386448C9.92364 -0.110749 9.07647 -0.11075 8.51029 0.386447L0.933578 7.03996C0.0863902 7.78392 0.612571 9.18055 1.74005 9.18055C1.86278 9.18055 1.96227 9.28004 1.96227 9.40277V16.4601C1.96227 17.2885 2.63384 17.9601 3.46227 17.9601H4.66158H5.86089C5.97964 17.9601 6.09517 17.9463 6.20597 17.9202H12.7941C12.9049 17.9463 13.0205 17.9601 13.1392 17.9601H14.3385H15.5378C16.3663 17.9601 17.0378 17.2885 17.0378 16.4601V9.40277C17.0378 9.28004 17.1373 9.18055 17.2601 9.18055C18.3875 9.18055 18.9137 7.78392 18.0665 7.03996L10.4898 0.386448ZM14.3385 16.9601L14.3385 16.9202H12.9432C12.7645 16.844 12.6392 16.6667 12.6392 16.4601V12.075C12.6392 11.2465 11.9677 10.575 11.1392 10.575H7.86089C7.03246 10.575 6.36089 11.2465 6.36089 12.075V16.4601C6.36089 16.6667 6.23562 16.844 6.0569 16.9202H5.87121V16.96C5.86778 16.9601 5.86434 16.9601 5.86089 16.9601H4.66158H3.46227C3.18613 16.9601 2.96227 16.7362 2.96227 16.4601V9.40277C2.96227 8.72776 2.41506 8.18055 1.74005 8.18055C1.53506 8.18055 1.43939 7.92662 1.59342 7.79136L9.17013 1.13785C9.35886 0.972117 9.64125 0.972117 9.82998 1.13785L17.4067 7.79136C17.5607 7.92662 17.4651 8.18055 17.2601 8.18055C16.585 8.18055 16.0378 8.72776 16.0378 9.40277V16.4601C16.0378 16.7362 15.814 16.9601 15.5378 16.9601H14.3385ZM7.289 16.9202C7.33568 16.7752 7.36089 16.6206 7.36089 16.4601V12.075C7.36089 11.7988 7.58474 11.575 7.86089 11.575H11.1392C11.4154 11.575 11.6392 11.7988 11.6392 12.075V16.4601C11.6392 16.6206 11.6644 16.7752 11.7111 16.9202H7.289Z" fill="black"/>
</svg>
