<svg width="21" height="17" viewBox="0 0 21 17" fill="none" xmlns="http://www.w3.org/2000/svg">
<path fill-rule="evenodd" clip-rule="evenodd" d="M11.2304 15.3264L14.3854 6.48693H18.8459L11.2304 15.3264ZM10.5586 15.6479L10.5023 15.8062L7.17384 6.48693H13.8263L10.5586 15.6479ZM2.15517 6.48693H6.61565L9.76976 15.3313L2.15517 6.48693ZM4.72724 1.19881L6.4154 5.93324H2.02779L4.72724 1.19881ZM10.0023 0.83839L9.5973 1.45613L6.86743 5.62343L5.15721 0.83839H10.0023ZM10.5023 1.04723L10.7708 1.45613L13.7053 5.93324H7.29466L10.5023 1.04723ZM15.8439 0.83839L15.6234 1.45613L14.1335 5.62343L11.4038 1.45613L10.9987 0.83839H15.8439ZM16.2738 1.19881L18.9732 5.93324H14.5856L16.1825 1.45613L16.2738 1.19881ZM17.0376 1.45613L16.3707 0.285706H4.62944L1.23535 6.24405L10.4978 17L19.7648 6.24405L17.0376 1.45613Z" fill="white" stroke="white" stroke-width="0.5"/>
</svg>
