<svg width="20" height="20" viewBox="0 0 20 20" fill="none" xmlns="http://www.w3.org/2000/svg">
<path fill-rule="evenodd" clip-rule="evenodd" d="M13.354 17.0807C13.354 16.2571 14.0211 15.59 14.8447 15.59C15.6683 15.59 16.3354 16.2571 16.3354 17.0807C16.3354 17.9043 15.6683 18.5714 14.8447 18.5714C14.0211 18.5714 13.354 17.9043 13.354 17.0807V17.0807Z" stroke="black" stroke-linecap="round" stroke-linejoin="round"/>
<path fill-rule="evenodd" clip-rule="evenodd" d="M5.90039 17.0807C5.90039 16.2571 6.56747 15.59 7.39107 15.59C8.21468 15.59 8.88176 16.2571 8.88176 17.0807C8.88176 17.9043 8.21468 18.5714 7.39107 18.5714C6.56747 18.5714 5.90039 17.9043 5.90039 17.0807V17.0807Z" stroke="black" stroke-linecap="round" stroke-linejoin="round"/>
<path d="M1.42822 2.91913H3.66425L5.54102 12.3015C5.74971 13.3472 6.66723 14.0993 7.73307 14.0993H16.3351" stroke="black" stroke-linecap="round" stroke-linejoin="round"/>
<path d="M4.40967 5.15533H18.5712L17.0805 11.1181L5.90035 12.6088" stroke="black" stroke-linecap="round" stroke-linejoin="round"/>
<path d="M11.1175 5.15524L7.39081 1.42853L5.15479 3.66455L6.64547 5.15524" stroke="black" stroke-linecap="round" stroke-linejoin="round"/>
<path d="M10.3726 4.40989V1.42853H13.3539V5.15524" stroke="black" stroke-linecap="round" stroke-linejoin="round"/>
<path d="M13.354 2.97256L14.4459 1.88063C15.0482 1.2784 16.0253 1.2784 16.6275 1.88063L16.629 1.88212C17.2313 2.48436 17.2313 3.46076 16.629 4.06299L15.5371 5.15566" stroke="black" stroke-linecap="round" stroke-linejoin="round"/>
</svg>
