<svg width="20" height="21" viewBox="0 0 20 21" fill="none" xmlns="http://www.w3.org/2000/svg">
<path fill-rule="evenodd" clip-rule="evenodd" d="M15.8488 14.1964L20.0002 18.3464L18.2388 20.1078L14.0916 15.9579C12.5735 17.1144 10.7143 17.7339 8.80589 17.7193C6.46603 17.7338 4.2178 16.8108 2.56324 15.1562C0.908676 13.5017 -0.0143902 11.2535 0.000169665 8.91363C-0.0143902 6.57379 0.908676 4.32558 2.56324 2.67103C4.2178 1.01649 6.46603 0.0934285 8.80589 0.107988C11.145 0.0938197 13.3924 1.01666 15.0466 2.67054C16.7008 4.32442 17.624 6.57168 17.6102 8.91077C17.6249 10.8191 17.0053 12.6784 15.8488 14.1964ZM4.33993 4.45196C3.15777 5.63411 2.50048 7.24186 2.51589 8.9136C2.50048 10.5853 3.15777 12.1931 4.33993 13.3752C5.52209 14.5574 7.12985 15.2147 8.80161 15.1993C10.4734 15.2147 12.0811 14.5574 13.2633 13.3752C14.4454 12.1931 15.1027 10.5853 15.0873 8.9136C15.1027 7.24186 14.4454 5.63411 13.2633 4.45196C12.0811 3.26982 10.4734 2.61253 8.80161 2.62794C7.12985 2.61253 5.52209 3.26982 4.33993 4.45196Z" fill="#828282"/>
</svg>
