<svg width="22" height="22" viewBox="0 0 22 22" fill="none" xmlns="http://www.w3.org/2000/svg">
<path fill-rule="evenodd" clip-rule="evenodd" d="M16.8938 5.707C16.8479 5.40164 16.5836 5.17706 16.2748 5.181H12.7138V3.725C12.7138 2.75145 12.1945 1.85186 11.3513 1.36508C10.5082 0.878306 9.46946 0.878306 8.62634 1.36508C7.78323 1.85186 7.26384 2.75145 7.26384 3.725V5.18H3.70284C3.39408 5.17606 3.12979 5.40064 3.08384 5.706L1.00884 18.248C0.974819 18.4306 1.026 18.6188 1.14784 18.759C1.26888 18.8974 1.44397 18.9766 1.62784 18.976H18.3648C18.5338 18.9779 18.6964 18.9116 18.8159 18.7921C18.9354 18.6726 19.0017 18.51 18.9998 18.341C18.9982 18.2733 18.9878 18.206 18.9688 18.141L16.8938 5.707ZM8.53381 3.725C8.53381 2.92115 9.18546 2.2695 9.98931 2.2695C10.7932 2.2695 11.4448 2.92115 11.4448 3.725V5.18H8.53381V3.725ZM2.37249 17.721L2.37183 17.725V17.721H2.37249ZM2.37249 17.721H17.6028L15.7298 6.45H12.7108V10C12.7108 10.3507 12.4265 10.635 12.0758 10.635C11.7251 10.635 11.4408 10.3507 11.4408 10V6.45H8.52983V10C8.52983 10.3507 8.24553 10.635 7.89483 10.635C7.54413 10.635 7.25983 10.3507 7.25983 10V6.45H4.24483L2.37249 17.721Z" fill="black"/>
<path d="M16.2748 5.181V5.38102L16.2774 5.38098L16.2748 5.181ZM16.8938 5.707L16.696 5.73676L16.6966 5.73992L16.8938 5.707ZM12.7138 5.181H12.5138V5.381H12.7138V5.181ZM7.26384 5.18V5.38H7.46384V5.18H7.26384ZM3.70284 5.18L3.70029 5.38H3.70284V5.18ZM3.08384 5.706L3.28118 5.73865L3.28162 5.73576L3.08384 5.706ZM1.00884 18.248L1.2055 18.2846L1.20616 18.2806L1.00884 18.248ZM1.14784 18.759L0.996876 18.8902L0.997287 18.8907L1.14784 18.759ZM1.62784 18.976V18.776L1.62722 18.776L1.62784 18.976ZM18.3648 18.976L18.3671 18.776H18.3648V18.976ZM18.8159 18.7921L18.6745 18.6507L18.6745 18.6507L18.8159 18.7921ZM18.9998 18.341L19.1998 18.3388L19.1998 18.3361L18.9998 18.341ZM18.9688 18.141L18.7716 18.1739L18.7735 18.1856L18.7768 18.1969L18.9688 18.141ZM11.4448 5.18V5.38H11.6448V5.18H11.4448ZM8.53381 5.18H8.33381V5.38H8.53381V5.18ZM2.37183 17.725H2.17183L2.56912 17.7578L2.37183 17.725ZM2.37183 17.721V17.521H2.17183V17.721H2.37183ZM17.6028 17.721V17.921H17.8388L17.8001 17.6882L17.6028 17.721ZM15.7298 6.45L15.9271 6.41721L15.8993 6.25H15.7298V6.45ZM12.7108 6.45V6.25H12.5108V6.45H12.7108ZM11.4408 6.45H11.6408V6.25H11.4408V6.45ZM8.52983 6.45V6.25H8.32983V6.45H8.52983ZM7.25983 6.45H7.45983V6.25H7.25983V6.45ZM4.24483 6.45V6.25H4.07531L4.04753 6.41722L4.24483 6.45ZM16.2774 5.38098C16.4862 5.37832 16.665 5.53022 16.6961 5.73676L17.0916 5.67724C17.0308 5.27307 16.681 4.97581 16.2723 4.98102L16.2774 5.38098ZM12.7138 5.381H16.2748V4.981H12.7138V5.381ZM12.5138 3.725V5.181H12.9138V3.725H12.5138ZM11.2513 1.53829C12.0326 1.98933 12.5138 2.8229 12.5138 3.725H12.9138C12.9138 2.68 12.3563 1.71438 11.4513 1.19188L11.2513 1.53829ZM8.72634 1.53829C9.50758 1.08724 10.4701 1.08724 11.2513 1.53829L11.4513 1.19188C10.5463 0.669375 9.43134 0.669375 8.52634 1.19188L8.72634 1.53829ZM7.46384 3.725C7.46384 2.8229 7.94511 1.98933 8.72634 1.53829L8.52634 1.19188C7.62135 1.71438 7.06384 2.68 7.06384 3.725H7.46384ZM7.46384 5.18V3.725H7.06384V5.18H7.46384ZM3.70284 5.38H7.26384V4.98H3.70284V5.38ZM3.28162 5.73576C3.31269 5.52922 3.49145 5.37732 3.70029 5.37998L3.70539 4.98002C3.2967 4.97481 2.94688 5.27207 2.88607 5.67624L3.28162 5.73576ZM1.20616 18.2806L3.28116 5.73865L2.88653 5.67335L0.811527 18.2154L1.20616 18.2806ZM1.29881 18.6278C1.21698 18.5336 1.18261 18.4073 1.20546 18.2846L0.812228 18.2114C0.767028 18.454 0.83502 18.7039 0.996877 18.8902L1.29881 18.6278ZM1.62722 18.776C1.50126 18.7764 1.38132 18.7222 1.2984 18.6273L0.997287 18.8907C1.15644 19.0727 1.38668 19.1768 1.62847 19.176L1.62722 18.776ZM18.3648 18.776H1.62784V19.176H18.3648V18.776ZM18.6745 18.6507C18.5931 18.7321 18.4823 18.7773 18.3671 18.776L18.3626 19.176C18.5854 19.1785 18.7998 19.0911 18.9574 18.9335L18.6745 18.6507ZM18.7999 18.3432C18.8011 18.4584 18.756 18.5692 18.6745 18.6507L18.9574 18.9335C19.1149 18.776 19.2023 18.5616 19.1998 18.3388L18.7999 18.3432ZM18.7768 18.1969C18.7909 18.2453 18.7987 18.2954 18.7999 18.3459L19.1998 18.3361C19.1977 18.2511 19.1846 18.1668 19.1609 18.0851L18.7768 18.1969ZM16.6966 5.73992L18.7716 18.1739L19.1661 18.1081L17.0911 5.67408L16.6966 5.73992ZM9.98931 2.0695C9.07501 2.0695 8.33381 2.81069 8.33381 3.725H8.73381C8.73381 3.03161 9.29592 2.4695 9.98931 2.4695V2.0695ZM11.6448 3.725C11.6448 2.81069 10.9036 2.0695 9.98931 2.0695V2.4695C10.6827 2.4695 11.2448 3.03161 11.2448 3.725H11.6448ZM11.6448 5.18V3.725H11.2448V5.18H11.6448ZM8.53381 5.38H11.4448V4.98H8.53381V5.38ZM8.33381 3.725V5.18H8.73381V3.725H8.33381ZM2.56912 17.7578L2.56979 17.7538L2.17519 17.6882L2.17453 17.6922L2.56912 17.7578ZM2.17183 17.721V17.725H2.57183V17.721H2.17183ZM2.37249 17.521H2.37183V17.921H2.37249V17.521ZM17.6028 17.521H2.37249V17.921H17.6028V17.521ZM15.5325 6.48278L17.4055 17.7538L17.8001 17.6882L15.9271 6.41721L15.5325 6.48278ZM12.7108 6.65H15.7298V6.25H12.7108V6.65ZM12.9108 10V6.45H12.5108V10H12.9108ZM12.0758 10.835C12.537 10.835 12.9108 10.4612 12.9108 10H12.5108C12.5108 10.2402 12.3161 10.435 12.0758 10.435V10.835ZM11.2408 10C11.2408 10.4612 11.6147 10.835 12.0758 10.835V10.435C11.8356 10.435 11.6408 10.2402 11.6408 10H11.2408ZM11.2408 6.45V10H11.6408V6.45H11.2408ZM8.52983 6.65H11.4408V6.25H8.52983V6.65ZM8.72983 10V6.45H8.32983V10H8.72983ZM7.89483 10.835C8.35598 10.835 8.72983 10.4612 8.72983 10H8.32983C8.32983 10.2402 8.13507 10.435 7.89483 10.435V10.835ZM7.05983 10C7.05983 10.4612 7.43367 10.835 7.89483 10.835V10.435C7.65458 10.435 7.45983 10.2402 7.45983 10H7.05983ZM7.05983 6.45V10H7.45983V6.45H7.05983ZM4.24483 6.65H7.25983V6.25H4.24483V6.65ZM2.56979 17.7538L4.44212 6.48277L4.04753 6.41722L2.17519 17.6882L2.56979 17.7538Z" fill="black"/>
<path fill-rule="evenodd" clip-rule="evenodd" d="M17.5 20C18.8807 20 20 18.8807 20 17.5C20 16.1193 18.8807 15 17.5 15C16.1193 15 15 16.1193 15 17.5C15 18.8807 16.1193 20 17.5 20Z" fill="#F15223"/>
<path fill-rule="evenodd" clip-rule="evenodd" d="M17.5 21C19.433 21 21 19.433 21 17.5C21 15.567 19.433 14 17.5 14C15.567 14 14 15.567 14 17.5C14 19.433 15.567 21 17.5 21Z" stroke="white" stroke-width="2"/>
</svg>
