<svg width="27" height="26" viewBox="0 0 27 26" fill="none" xmlns="http://www.w3.org/2000/svg">
<path d="M6.64288 8.99999V3.66666C6.64288 2.19378 8.17774 1 10.0714 1H16.9286C18.8223 1 20.3571 2.19378 20.3571 3.66666V8.99999" stroke="white" stroke-width="1.5" stroke-linecap="round" stroke-linejoin="round"/>
<path d="M9.13635 7.54547H17.8636" stroke="white" stroke-width="1.5" stroke-linecap="round" stroke-linejoin="round"/>
<path d="M22.2273 7.54547H25.5V25H1.50003V7.54547H4.77275" stroke="white" stroke-width="1.5" stroke-linecap="round" stroke-linejoin="round"/>
<path fill-rule="evenodd" clip-rule="evenodd" d="M8.0455 16.2728C8.0455 13.2608 10.488 10.8182 13.5 10.8182C16.512 10.8182 18.9546 13.2608 18.9546 16.2728C18.9546 19.2848 16.512 21.7273 13.5 21.7273C10.488 21.7273 8.0455 19.2848 8.0455 16.2728V16.2728Z" stroke="white" stroke-width="1.5" stroke-linecap="round" stroke-linejoin="round"/>
<path d="M15.8529 16.435C15.8529 16.32 15.803 16.212 15.719 16.146L12.5817 13.6753C12.4863 13.5997 12.3609 13.5912 12.257 13.6512C12.1532 13.7123 12.0882 13.8327 12.0882 13.9643V18.9061C12.0882 19.0378 12.1532 19.1585 12.257 19.2192C12.3609 19.2792 12.486 19.2707 12.5817 19.1952L15.719 16.7245C15.803 16.6588 15.8529 16.5508 15.8529 16.4357C15.8529 16.4354 15.8529 16.4354 15.8529 16.435C15.8529 16.4354 15.8529 16.4354 15.8529 16.435Z" fill="white"/>
</svg>
