<svg width="86" height="25" viewBox="0 0 86 25" fill="none" xmlns="http://www.w3.org/2000/svg">
<path fill-rule="evenodd" clip-rule="evenodd" d="M12.196 8.47413V24.2083H16.8184V8.43187C16.1327 8.84217 15.3296 9.07813 14.4711 9.07813C13.6426 9.07813 12.8657 8.85833 12.196 8.47413ZM10.3397 19.8508V23.5426C9.85315 23.825 9.31589 24.0469 8.72794 24.2083C8.14 24.3899 7.46082 24.4806 6.69041 24.4806C5.98082 24.4806 5.33205 24.4 4.74411 24.2386C4.17644 24.0973 3.67972 23.8351 3.25397 23.4518C2.84849 23.0685 2.52411 22.5742 2.28082 21.969C2.05781 21.3437 1.9463 20.5569 1.9463 19.6087V11.9226H0V7.98874H1.9463V3.84307H6.56876V7.98874H10.4005V11.9226H6.56876V18.8522C6.56876 19.9012 7.06548 20.4258 8.0589 20.4258C8.86986 20.4258 9.63013 20.2341 10.3397 19.8508ZM34.5407 16.5524V16.4919C34.5407 15.342 34.3785 14.2425 34.0541 13.1935C33.75 12.1243 33.2634 11.1863 32.5944 10.3793C31.9456 9.55219 31.1245 8.89655 30.1311 8.41238C29.1376 7.92822 27.9618 7.68614 26.6034 7.68614C25.4072 7.68614 24.3124 7.90804 23.319 8.35186C22.3459 8.79568 21.5045 9.40089 20.7949 10.1675C20.0853 10.9341 19.5278 11.8318 19.1223 12.8607C18.7371 13.8895 18.5445 14.9789 18.5445 16.1288V16.1893C18.5445 17.4401 18.7574 18.5799 19.1831 19.6087C19.6089 20.6174 20.1968 21.495 20.947 22.2414C21.7174 22.9878 22.6196 23.5627 23.6535 23.9662C24.7078 24.3697 25.8431 24.5714 27.0596 24.5714C28.5396 24.5714 29.827 24.3092 30.9218 23.7847C32.0165 23.24 32.9491 22.4935 33.7196 21.5454L31.0738 19.2153C30.425 19.8004 29.7965 20.224 29.1883 20.4863C28.5801 20.7485 27.8908 20.8797 27.1204 20.8797C26.0864 20.8797 25.2146 20.6174 24.505 20.0929C23.8157 19.5482 23.3596 18.7513 23.1366 17.7023H34.4798C34.5001 17.4804 34.5102 17.2888 34.5102 17.1274C34.5305 16.966 34.5407 16.7743 34.5407 16.5524ZM30.0398 14.8276H23.0757C23.2582 13.7786 23.6434 12.9414 24.2313 12.316C24.8396 11.6906 25.6302 11.3779 26.6034 11.3779C27.5765 11.3779 28.3571 11.7007 28.945 12.3462C29.533 12.9716 29.8979 13.7987 30.0398 14.8276ZM51.0928 13.708V24.2083H46.4703V15.1604C46.4703 14.0711 46.227 13.254 45.7404 12.7094C45.2539 12.1445 44.5645 11.8621 43.6725 11.8621C42.7804 11.8621 42.0708 12.1445 41.5437 12.7094C41.0369 13.254 40.7834 14.0711 40.7834 15.1604V24.2083H36.161V7.98874H40.7834V10.2885C41.047 9.94558 41.3308 9.6228 41.635 9.3202C41.9593 8.99742 42.3141 8.71499 42.6993 8.4729C43.0845 8.23082 43.5103 8.03917 43.9766 7.89796C44.4429 7.75674 44.97 7.68614 45.558 7.68614C47.3218 7.68614 48.6801 8.22074 49.633 9.28993C50.6062 10.3591 51.0928 11.8318 51.0928 13.708ZM69.6753 24.2083V2.11823H65.0528V10.107C64.5054 9.46141 63.8262 8.89655 63.0153 8.41238C62.2246 7.92822 61.2109 7.68614 59.9742 7.68614C59.001 7.68614 58.0684 7.8677 57.1764 8.23082C56.2843 8.59395 55.4936 9.13863 54.8043 9.86488C54.1353 10.571 53.5879 11.4485 53.1621 12.4975C52.7566 13.5264 52.5539 14.7166 52.5539 16.0683V16.1288C52.5539 17.4804 52.7566 18.6807 53.1621 19.7298C53.5879 20.7586 54.1454 21.6362 54.8347 22.3624C55.524 23.0685 56.3147 23.6031 57.2068 23.9662C58.0988 24.3293 59.0213 24.5109 59.9742 24.5109C61.1906 24.5109 62.1942 24.2688 62.9849 23.7847C63.7958 23.2803 64.4851 22.6448 65.0528 21.8783V24.2083H69.6753ZM65.1136 16.1288C65.1136 16.7945 65.0021 17.4098 64.7791 17.9747C64.5764 18.5194 64.2925 18.9934 63.9276 19.3969C63.5829 19.7802 63.1673 20.0828 62.6807 20.3047C62.2144 20.5065 61.7076 20.6073 61.1602 20.6073C60.6128 20.6073 60.0958 20.5065 59.6092 20.3047C59.1429 20.0828 58.7273 19.7802 58.3624 19.3969C57.9975 18.9934 57.7035 18.5194 57.4805 17.9747C57.2777 17.4098 57.1764 16.7945 57.1764 16.1288V16.0683C57.1764 15.3824 57.2777 14.7671 57.4805 14.2224C57.7035 13.6777 57.9975 13.2137 58.3624 12.8304C58.7273 12.4269 59.1429 12.1243 59.6092 11.9226C60.0958 11.7007 60.6128 11.5897 61.1602 11.5897C61.7076 11.5897 62.2144 11.7007 62.6807 11.9226C63.1673 12.1243 63.5829 12.4269 63.9276 12.8304C64.2925 13.2137 64.5764 13.6878 64.7791 14.2526C65.0021 14.7973 65.1136 15.4025 65.1136 16.0683V16.1288ZM86 14.7973V24.2083H81.5296V22.4532C80.9619 23.0786 80.2827 23.5829 79.4921 23.9662C78.7014 24.3293 77.7384 24.5109 76.603 24.5109C75.8326 24.5109 75.1027 24.41 74.4134 24.2083C73.7444 23.9864 73.1564 23.6636 72.6496 23.24C72.1427 22.8163 71.7373 22.3019 71.4332 21.6967C71.1493 21.0713 71.0074 20.3551 71.0074 19.5482V19.4877C71.0074 18.6 71.1696 17.8334 71.494 17.1879C71.8184 16.5423 72.2644 16.0077 72.8321 15.5841C73.42 15.1604 74.1093 14.8478 74.9 14.646C75.711 14.4241 76.603 14.3132 77.5762 14.3132C78.4074 14.3132 79.1271 14.3737 79.7353 14.4947C80.3638 14.6158 80.9721 14.7772 81.56 14.9789V14.7065C81.56 13.7382 81.266 13.0019 80.6781 12.4975C80.0901 11.9932 79.2184 11.741 78.0627 11.741C77.1707 11.741 76.38 11.8217 75.6907 11.9831C75.0216 12.1243 74.3121 12.3361 73.5619 12.6186L72.4063 9.10837C73.2984 8.72507 74.231 8.41238 75.2041 8.1703C76.1773 7.92822 77.3532 7.80718 78.7318 7.80718C81.266 7.80718 83.111 8.42247 84.2666 9.65306C85.4222 10.8836 86 12.5984 86 14.7973ZM80.6173 20.5468C81.2863 20.0223 81.6208 19.3364 81.6208 18.4891V17.6721C81.2153 17.4905 80.7592 17.3493 80.2523 17.2484C79.7658 17.1274 79.2386 17.0669 78.671 17.0669C77.6775 17.0669 76.897 17.2585 76.3293 17.6418C75.7617 18.0251 75.4778 18.5799 75.4778 19.3061V19.3666C75.4778 19.992 75.711 20.4762 76.1773 20.8191C76.6436 21.1621 77.2518 21.3336 78.0019 21.3336C79.0967 21.3336 79.9685 21.0713 80.6173 20.5468Z" fill="#398994"/>
<circle cx="14.61" cy="4.64865" r="2.65637" fill="#F15223"/>
</svg>
